<?xml version="1.0" encoding="UTF-8"?><svg id="Layer_1" xmlns="http://www.w3.org/2000/svg" viewBox="0 0 150 38.4"><defs><style>.cls-1{fill:#0088ce;}.cls-2{fill:#f58220;}.cls-3{fill:#002a4e;}</style></defs><rect class="cls-2" x="128.72" y="11.06" width="2.97" height="16.15"/><polygon class="cls-2" points="74.05 22.96 67.06 11.06 63.34 11.06 63.34 27.2 66.34 27.2 66.34 15.26 73.36 27.2 77.06 27.2 77.06 11.06 74.05 11.06 74.05 22.96"/><polygon class="cls-2" points="83.67 11.06 80.67 11.06 80.67 27.21 90.89 27.21 90.89 24.27 83.67 24.27 83.67 11.06"/><path class="cls-2" d="M52.33,10.76c-4.61,0-8.37,3.75-8.37,8.37s3.75,8.37,8.37,8.37,8.37-3.75,8.37-8.37-3.76-8.37-8.37-8.37M52.33,24.56c-2.99,0-5.42-2.43-5.42-5.43s2.43-5.42,5.42-5.42,5.43,2.43,5.43,5.42-2.43,5.43-5.43,5.43"/><path class="cls-2" d="M100.15,10.76c-4.61,0-8.36,3.75-8.36,8.37s3.75,8.37,8.36,8.37,8.37-3.75,8.37-8.37-3.76-8.37-8.37-8.37M100.15,24.56c-2.99,0-5.42-2.43-5.42-5.43s2.43-5.42,5.42-5.42,5.43,2.43,5.43,5.42-2.43,5.43-5.43,5.43"/><path class="cls-2" d="M126.08,17.8h-4.87l-2.32,2.82h4.24v2.29c-.99,1.02-2.36,1.65-3.89,1.65-2.99,0-5.42-2.43-5.42-5.43s2.43-5.42,5.42-5.42c1.51,0,2.88.62,3.86,1.62l1.87-2.28c-1.5-1.42-3.51-2.29-5.73-2.29-4.61,0-8.36,3.75-8.36,8.37s3.75,8.37,8.36,8.37c2.82,0,5.32-1.41,6.83-3.57v-6.14Z"/><path class="cls-2" d="M150,22.97l-2.61-1.35c-.9,1.74-2.72,2.94-4.82,2.94-2.99,0-5.42-2.43-5.42-5.43s2.43-5.42,5.42-5.42c2.09,0,3.9,1.19,4.81,2.92l2.62-1.35c-1.4-2.68-4.2-4.52-7.42-4.52-4.61,0-8.37,3.75-8.37,8.37s3.75,8.37,8.37,8.37c3.23,0,6.03-1.85,7.43-4.53"/><polygon class="cls-2" points="28.94 32.34 28.94 25.71 21.2 28.96 28.94 32.34"/><polygon class="cls-3" points="28.94 32.34 14.47 26.02 14.48 9.57 6.74 12.93 0 15.86 .02 32.24 14.69 38.4 28.94 32.34 28.94 32.34"/><polygon class="cls-2" points="6.74 12.93 14.48 9.57 6.74 6.2 6.74 12.93"/><polygon class="cls-2" points="14.48 9.57 14.47 26.02 21.2 28.96 21.21 12.51 14.48 9.57"/><polygon class="cls-1" points="21.2 28.96 21.2 28.96 35.68 22.87 35.66 6.43 21 0 6.74 6.2 21.21 12.51 21.2 28.96"/></svg>