<?xml version="1.0" encoding="UTF-8"?><svg id="Layer_1" xmlns="http://www.w3.org/2000/svg" viewBox="0 0 150 38.4"><defs><style>.cls-1{fill:#fff;}</style></defs><rect class="cls-1" x="128.73" y="11.07" width="2.97" height="16.15"/><polygon class="cls-1" points="74.06 22.96 67.07 11.07 63.34 11.07 63.34 27.21 66.34 27.21 66.34 15.26 73.36 27.21 77.06 27.21 77.06 11.07 74.06 11.07 74.06 22.96"/><polygon class="cls-1" points="83.68 11.07 80.67 11.07 80.67 27.21 90.9 27.21 90.9 24.28 83.68 24.28 83.68 11.07"/><path class="cls-1" d="M52.34,10.77c-4.61,0-8.37,3.75-8.37,8.37s3.75,8.37,8.37,8.37,8.37-3.76,8.37-8.37-3.76-8.37-8.37-8.37M52.34,24.56c-2.99,0-5.42-2.43-5.42-5.42s2.43-5.42,5.42-5.42,5.43,2.43,5.43,5.42-2.43,5.42-5.43,5.42"/><path class="cls-1" d="M100.15,10.77c-4.61,0-8.36,3.75-8.36,8.37s3.75,8.37,8.36,8.37,8.37-3.76,8.37-8.37-3.75-8.37-8.37-8.37M100.15,24.56c-2.99,0-5.42-2.43-5.42-5.42s2.43-5.42,5.42-5.42,5.43,2.43,5.43,5.42-2.44,5.42-5.43,5.42"/><path class="cls-1" d="M126.08,17.81h-4.87l-2.32,2.82h4.25v2.29c-.99,1.02-2.36,1.65-3.89,1.65-2.99,0-5.42-2.43-5.42-5.42s2.43-5.42,5.42-5.42c1.51,0,2.88.62,3.86,1.62l1.87-2.27c-1.5-1.42-3.52-2.29-5.73-2.29-4.61,0-8.36,3.75-8.36,8.37s3.75,8.37,8.36,8.37c2.82,0,5.32-1.41,6.83-3.57v-6.14Z"/><path class="cls-1" d="M150,22.97l-2.61-1.35c-.91,1.74-2.72,2.94-4.82,2.94-2.99,0-5.42-2.43-5.42-5.42s2.43-5.42,5.42-5.42c2.09,0,3.9,1.19,4.81,2.92l2.61-1.35c-1.4-2.68-4.2-4.52-7.42-4.52-4.61,0-8.36,3.75-8.36,8.37s3.75,8.37,8.36,8.37c3.23,0,6.03-1.85,7.43-4.53"/><path class="cls-1" d="M29.45,26.01l6.46-2.72-.02-16.88L20.97-.13,6.46,6.19v6.45L0,15.43l.03,16.83,14.91,6.27,14.51-6.17v-6.35ZM27.74,30.45l-4.36-1.89,4.36-1.82v3.71ZM15.6,11.32l4.71,2.05v13.85s-4.71-2.05-4.71-2.05v-13.85ZM20.97,1.77l13.17,5.78.02,14.59-12.12,5.1v-15.01s-12.65-5.55-12.65-5.55L20.97,1.77ZM12.55,9.99l-4.39,1.89v-3.79l4.39,1.9ZM14.93,36.64L1.76,31.11l-.02-14.53,12.12-5.26v14.99s12.69,5.52,12.69,5.52l-11.62,4.82Z"/></svg>