<?xml version="1.0" encoding="UTF-8"?><svg id="Layer_1" xmlns="http://www.w3.org/2000/svg" viewBox="0 0 50 50"><defs><style>.cls-1{fill:#f58220;}.cls-2{fill:#0076bc;}.cls-3{fill:#0b3254;}</style></defs><polygon class="cls-1" points="34.97 36.8 34.97 30.85 28.02 33.77 28.02 33.77 34.97 36.8 34.97 36.8"/><polygon class="cls-3" points="34.97 36.8 21.97 31.13 21.98 16.35 15.03 19.37 8.97 22 8.99 36.72 22.17 42.25 34.97 36.8 34.97 36.8 34.97 36.8"/><polygon class="cls-1" points="15.03 19.37 21.98 16.35 15.03 13.32 15.03 19.37 15.03 19.37"/><polygon class="cls-1" points="21.98 16.35 21.97 31.13 28.02 33.77 28.03 18.99 21.98 16.35 21.98 16.35"/><polygon class="cls-2" points="28.02 33.77 28.02 33.77 41.03 28.3 41.01 13.53 27.83 7.75 15.03 13.32 28.03 18.99 28.02 33.77 28.02 33.77 28.02 33.77"/></svg>
